<?xml version="1.0" encoding="utf-8"?>
<!-- Generator: Adobe Illustrator 23.0.1, SVG Export Plug-In . SVG Version: 6.00 Build 0)  -->
<svg version="1.1" id="Layer_1" xmlns="http://www.w3.org/2000/svg" xmlns:xlink="http://www.w3.org/1999/xlink" x="0px" y="0px"
	 viewBox="0 0 73.2 13" style="enable-background:new 0 0 73.2 13;" xml:space="preserve">
<style type="text/css">
	.st0{fill:#DDDDDD;}
</style>
<path class="st0"  d="M55.4,13c-0.1,0-0.1,0-0.2-0.1l-3.7-2.8l-3.7,2.8c-0.1,0.1-0.2,0.1-0.3,0c-0.1-0.1-0.1-0.2-0.1-0.3l1.4-4.5
	l-3.7-2.8C45,5.1,45,5,45,4.9c0-0.1,0.1-0.2,0.3-0.2h4.6l1.4-4.5c0-0.1,0.1-0.2,0.3-0.2s0.2,0.1,0.3,0.2l1.4,4.5h4.6
	c0.1,0,0.2,0.1,0.3,0.2c0,0.1,0,0.2-0.1,0.3l-3.7,2.8l1.4,4.5c0,0.1,0,0.2-0.1,0.3C55.5,12.9,55.5,13,55.4,13z"/>
<path class="st0" d="M40.4,13c-0.1,0-0.1,0-0.2-0.1l-3.7-2.8l-3.7,2.8c-0.1,0.1-0.2,0.1-0.3,0s-0.1-0.2-0.1-0.3l1.4-4.5l-3.7-2.8
	C30,5.1,30,5,30,4.9c0-0.1,0.1-0.2,0.3-0.2h4.6l1.4-4.5c0-0.1,0.1-0.2,0.3-0.2c0.2,0,0.2,0.1,0.3,0.2l1.4,4.5h4.6
	c0.1,0,0.2,0.1,0.3,0.2c0,0.1,0,0.2-0.1,0.3l-3.7,2.8l1.4,4.5c0,0.1,0,0.2-0.1,0.3C40.5,12.9,40.5,13,40.4,13z"/>
<path class="st0" d="M25.4,13c-0.1,0-0.1,0-0.2-0.1l-3.7-2.8l-3.7,2.8c-0.1,0.1-0.2,0.1-0.3,0s-0.1-0.2-0.1-0.3l1.4-4.5l-3.7-2.8
	C15,5.1,15,5,15,4.9c0-0.1,0.1-0.2,0.3-0.2h4.6l1.4-4.5c0-0.1,0.1-0.2,0.3-0.2c0.2,0,0.2,0.1,0.3,0.2l1.4,4.5h4.6
	c0.1,0,0.2,0.1,0.3,0.2c0,0.1,0,0.2-0.1,0.3l-3.7,2.8l1.4,4.5c0,0.1,0,0.2-0.1,0.3C25.5,12.9,25.5,13,25.4,13z"/>
<path class="st0" d="M70.4,13c-0.1,0-0.1,0-0.2-0.1l-3.7-2.8l-3.7,2.8c-0.1,0.1-0.2,0.1-0.3,0c-0.1-0.1-0.1-0.2-0.1-0.3l1.4-4.5
	l-3.7-2.8C60,5.1,60,5,60,4.9c0-0.1,0.1-0.2,0.3-0.2h4.6l1.4-4.5c0-0.1,0.1-0.2,0.3-0.2s0.2,0.1,0.3,0.2l1.4,4.5h4.6
	c0.1,0,0.2,0.1,0.3,0.2c0,0.1,0,0.2-0.1,0.3l-3.7,2.8l1.4,4.5c0,0.1,0,0.2-0.1,0.3C70.5,12.9,70.5,13,70.4,13z"/>
<path class="st0" d="M10.4,13c-0.1,0-0.1,0-0.2-0.1l-3.7-2.8l-3.7,2.8c-0.1,0.1-0.2,0.1-0.3,0s-0.1-0.2-0.1-0.3l1.4-4.5L0.1,5.2
	C0,5.1,0,5,0,4.9c0-0.1,0.1-0.2,0.3-0.2h4.6l1.4-4.5C6.3,0.1,6.4,0,6.6,0s0.2,0.1,0.3,0.2l1.4,4.5h4.6c0.1,0,0.2,0.1,0.3,0.2
	c0,0.1,0,0.2-0.1,0.3L9.4,8.1l1.4,4.5c0,0.1,0,0.2-0.1,0.3C10.5,12.9,10.5,13,10.4,13z"/>
</svg>
