<?xml version="1.0" encoding="utf-8"?>
<!-- Generator: Adobe Illustrator 23.0.1, SVG Export Plug-In . SVG Version: 6.00 Build 0)  -->
<svg version="1.1" id="Layer_1" xmlns="http://www.w3.org/2000/svg" xmlns:xlink="http://www.w3.org/1999/xlink" x="0px" y="0px"
	 viewBox="0 0 108 20" style="enable-background:new 0 0 108 20;" xml:space="preserve">
<style type="text/css">
	.st0{fill:#64B9CB;}
</style>
<path class="st0" d="M15.7,20c-0.2,0-0.2,0-0.3-0.2l-5.5-4.4l-5.6,4.4C4.1,20,4,20,3.8,19.8c-0.2-0.2-0.2-0.3-0.2-0.5l2.1-6.9
	L0.2,8.1C0,7.9,0,7.7,0,7.6s0.2-0.3,0.5-0.3h7l2.1-6.9C9.6,0.2,9.8,0,9.9,0c0.2,0,0.3,0.2,0.5,0.3l2.1,6.9h7c0.2,0,0.3,0.2,0.5,0.3
	c0,0.2,0,0.3-0.2,0.5L14,12.4l2.1,6.9c0,0.2,0,0.3-0.2,0.5C15.9,19.8,15.9,20,15.7,20z"/>
<path class="st0" d="M37.7,20c-0.2,0-0.2,0-0.3-0.2l-5.5-4.4l-5.6,4.4c-0.2,0.2-0.3,0.2-0.5,0c-0.2-0.2-0.2-0.3-0.2-0.5l2.1-6.9
	l-5.6-4.4C22,7.9,22,7.7,22,7.6c0-0.2,0.2-0.3,0.5-0.3h7l2.1-6.9c0-0.2,0.2-0.3,0.3-0.3c0.2,0,0.3,0.2,0.5,0.3l2.1,6.9h7
	c0.2,0,0.3,0.2,0.5,0.3c0,0.2,0,0.3-0.2,0.5L36,12.4l2.1,6.9c0,0.2,0,0.3-0.2,0.5C37.9,19.8,37.9,20,37.7,20z"/>
<path class="st0" d="M59.7,20c-0.2,0-0.2,0-0.3-0.2l-5.5-4.4l-5.6,4.4c-0.2,0.2-0.3,0.2-0.5,0s-0.2-0.3-0.2-0.5l2.1-6.9l-5.6-4.4
	C44,7.9,44,7.7,44,7.6c0-0.2,0.2-0.3,0.5-0.3h7l2.1-6.9c0-0.2,0.2-0.3,0.3-0.3s0.3,0.2,0.5,0.3l2.1,6.9h7c0.2,0,0.3,0.2,0.5,0.3
	c0,0.2,0,0.3-0.2,0.5L58,12.4l2.1,6.9c0,0.2,0,0.3-0.2,0.5C59.9,19.8,59.9,20,59.7,20z"/>
<path class="st0" d="M81.7,20c-0.2,0-0.2,0-0.3-0.2l-5.5-4.4l-5.6,4.4c-0.2,0.2-0.3,0.2-0.5,0c-0.2-0.2-0.2-0.3-0.2-0.5l2.1-6.9
	l-5.6-4.4C66,7.9,66,7.7,66,7.6c0-0.2,0.2-0.3,0.5-0.3h7l2.1-6.9c0-0.2,0.2-0.3,0.3-0.3s0.3,0.2,0.5,0.3l2.1,6.9h7
	c0.2,0,0.3,0.2,0.5,0.3c0,0.2,0,0.3-0.2,0.5L80,12.4l2.1,6.9c0,0.2,0,0.3-0.2,0.5C81.9,19.8,81.9,20,81.7,20z"/>
<path class="st0" d="M103.7,20c-0.2,0-0.2,0-0.3-0.2l-5.5-4.4l-5.6,4.4c-0.2,0.2-0.3,0.2-0.5,0s-0.2-0.3-0.2-0.5l2.1-6.9l-5.6-4.4
	C88,7.9,88,7.7,88,7.6s0.2-0.3,0.5-0.3h7l2.1-6.9c0-0.2,0.2-0.3,0.3-0.3s0.3,0.2,0.5,0.3l2.1,6.9h7c0.2,0,0.3,0.2,0.5,0.3
	c0,0.2,0,0.3-0.2,0.5l-5.8,4.4l2.1,6.9c0,0.2,0,0.3-0.2,0.5C103.9,19.8,103.9,20,103.7,20z"/>
</svg>
