<?xml version="1.0" encoding="utf-8"?>
<!-- Generator: Adobe Illustrator 19.0.0, SVG Export Plug-In . SVG Version: 6.00 Build 0)  -->
<svg version="1.1" id="Layer_1" xmlns="http://www.w3.org/2000/svg" xmlns:xlink="http://www.w3.org/1999/xlink" x="0px" y="0px"
	 viewBox="0 0 13.2 12.4" style="enable-background:new 0 0 13.2 12.4;" xml:space="preserve">
<style type="text/css">
	.st0{fill:#DDDDDD;}
</style>
<path class="st0" d="M10.4,12.4c-0.1,0-0.1,0-0.2-0.1L6.5,9.6l-3.7,2.7c-0.1,0.1-0.2,0.1-0.3,0c-0.1-0.1-0.1-0.2-0.1-0.3l1.4-4.3
	L0.1,5C0,4.9,0,4.8,0,4.7s0.1-0.2,0.3-0.2h4.6l1.4-4.3C6.3,0.1,6.4,0,6.6,0s0.2,0.1,0.3,0.2l1.4,4.3h4.6c0.1,0,0.2,0.1,0.3,0.2
	c0,0.1,0,0.2-0.1,0.3L9.4,7.7l1.4,4.3c0,0.1,0,0.2-0.1,0.3C10.5,12.3,10.5,12.4,10.4,12.4z"/>
</svg>
